# xmcd
#
# Track frame offsets:
#	150
#	12225
#	26175
#	44400
#	59700
#	74625
#	91050
#	120375
#	137120
#	152355
#	170355
#	186855
#	214380
#	228930
#
# Disc length: 3270 seconds
#
# Revision: 1
# Processed by: cddbd v1.5.2PL0 Copyright (c) Steve Scherf et al.
# Submitted via: EasyCDDAExtractor 7.1.0.1
#
DISCID=c30cc40e
DTITLE=David Johansen and the Harry Smiths - Shaker
DYEAR=2002
DGENRE=Blues
TTITLE0=Furry's Blues
TTITLE1=I'll Go With Her
TTITLE2=Deep Blue Sea
TTITLE3=My Morphine
TTITLE4=Ham Hound Crave
TTITLE5=Let The Mermaids Flirt With Me
TTITLE6=I Can't Be Satisfied
TTITLE7=In Love Again
TTITLE8=Death Letter
TTITLE9=My Grandpa Is Old Too
TTITLE10=Jailbird Love Song
TTITLE11=High Sheriff
TTITLE12=Kassie Jones
TTITLE13=The Last Kind Words
EXTD=
EXTT0=
EXTT1=
EXTT2=
EXTT3=
EXTT4=
EXTT5=
EXTT6=
EXTT7=
EXTT8=
EXTT9=
EXTT10=
EXTT11=
EXTT12=
EXTT13=
PLAYORDER=
